<?xml version="1.0" encoding="UTF-8"?>
<!DOCTYPE svg PUBLIC "-//W3C//DTD SVG 1.1//EN" "http://www.w3.org/Graphics/SVG/1.1/DTD/svg11.dtd">
<svg xmlns="http://www.w3.org/2000/svg" xmlns:xlink="http://www.w3.org/1999/xlink" version="1.1" width="1581px" height="491px" viewBox="-0.5 -0.5 1581 491" style="background-color: rgb(255, 255, 255);"><defs><clipPath id="mx-clip-1056-30-204-30-0"><rect x="1056" y="30" width="204" height="30"/></clipPath><clipPath id="mx-clip-1056-60-204-30-0"><rect x="1056" y="60" width="204" height="30"/></clipPath><clipPath id="mx-clip-1056-90-204-30-0"><rect x="1056" y="90" width="204" height="30"/></clipPath><clipPath id="mx-clip-1056-120-204-30-0"><rect x="1056" y="120" width="204" height="30"/></clipPath><clipPath id="mx-clip-1056-150-204-30-0"><rect x="1056" y="150" width="204" height="30"/></clipPath><clipPath id="mx-clip-1056-180-204-30-0"><rect x="1056" y="180" width="204" height="30"/></clipPath><clipPath id="mx-clip-1056-210-204-30-0"><rect x="1056" y="210" width="204" height="30"/></clipPath><clipPath id="mx-clip-1056-240-204-30-0"><rect x="1056" y="240" width="204" height="30"/></clipPath><clipPath id="mx-clip-1056-270-204-30-0"><rect x="1056" y="270" width="204" height="30"/></clipPath><clipPath id="mx-clip-671-40-214-30-0"><rect x="671" y="40" width="214" height="30"/></clipPath><clipPath id="mx-clip-671-70-214-30-0"><rect x="671" y="70" width="214" height="30"/></clipPath><clipPath id="mx-clip-671-100-214-30-0"><rect x="671" y="100" width="214" height="30"/></clipPath><clipPath id="mx-clip-671-130-214-30-0"><rect x="671" y="130" width="214" height="30"/></clipPath><clipPath id="mx-clip-671-160-214-30-0"><rect x="671" y="160" width="214" height="30"/></clipPath><clipPath id="mx-clip-671-190-214-30-0"><rect x="671" y="190" width="214" height="30"/></clipPath><clipPath id="mx-clip-356-70-204-30-0"><rect x="356" y="70" width="204" height="30"/></clipPath><clipPath id="mx-clip-356-100-204-30-0"><rect x="356" y="100" width="204" height="30"/></clipPath><clipPath id="mx-clip-346-200-204-30-0"><rect x="346" y="200" width="204" height="30"/></clipPath><clipPath id="mx-clip-346-230-204-30-0"><rect x="346" y="230" width="204" height="30"/></clipPath><clipPath id="mx-clip-346-260-204-30-0"><rect x="346" y="260" width="204" height="30"/></clipPath><clipPath id="mx-clip-1376-60-204-30-0"><rect x="1376" y="60" width="204" height="30"/></clipPath><clipPath id="mx-clip-1376-90-204-30-0"><rect x="1376" y="90" width="204" height="30"/></clipPath><clipPath id="mx-clip-1376-170-204-30-0"><rect x="1376" y="170" width="204" height="30"/></clipPath><clipPath id="mx-clip-1376-200-204-30-0"><rect x="1376" y="200" width="204" height="30"/></clipPath><clipPath id="mx-clip-1376-290-204-30-0"><rect x="1376" y="290" width="204" height="30"/></clipPath><clipPath id="mx-clip-736-360-204-30-0"><rect x="736" y="360" width="204" height="30"/></clipPath><clipPath id="mx-clip-736-390-204-30-0"><rect x="736" y="390" width="204" height="30"/></clipPath><clipPath id="mx-clip-1366-375-204-30-0"><rect x="1366" y="375" width="204" height="30"/></clipPath><clipPath id="mx-clip-1356-460-204-30-0"><rect x="1356" y="460" width="204" height="30"/></clipPath><clipPath id="mx-clip-356-340-204-30-0"><rect x="356" y="340" width="204" height="30"/></clipPath><clipPath id="mx-clip-36-340-204-30-0"><rect x="36" y="340" width="204" height="30"/></clipPath><style type="text/css">@import url(https://fonts.googleapis.com/css?family=Permanent+Marker);&#xa;</style></defs><g><path d="M 885 10 L 905 10 Q 915 10 924.67 12.55 L 981.29 27.45 Q 990.96 30 1000.96 30 L 1020.96 30" fill="none" stroke="rgba(0, 0, 0, 1)" stroke-miterlimit="10" pointer-events="stroke"/><path d="M 889 6 L 889 14" fill="none" stroke="rgba(0, 0, 0, 1)" stroke-miterlimit="10" pointer-events="all"/><ellipse cx="1008.96" cy="30" rx="3" ry="3" fill="#ffffff" stroke="rgba(0, 0, 0, 1)" pointer-events="all"/><path d="M 1020.96 26 L 1012.96 30 L 1020.96 34" fill="none" stroke="rgba(0, 0, 0, 1)" stroke-miterlimit="10" pointer-events="all"/><path d="M 1020 30 L 1020 0 L 1260 0 L 1260 30" fill="rgba(255, 255, 255, 1)" stroke="rgba(0, 0, 0, 1)" stroke-miterlimit="10" pointer-events="all"/><path d="M 1020 30 L 1020 300 L 1260 300 L 1260 30" fill="none" stroke="rgba(0, 0, 0, 1)" stroke-miterlimit="10" pointer-events="none"/><path d="M 1020 30 L 1260 30" fill="none" stroke="rgba(0, 0, 0, 1)" stroke-miterlimit="10" pointer-events="none"/><path d="M 1050 30 L 1050 300" fill="none" stroke="rgba(0, 0, 0, 1)" stroke-miterlimit="10" pointer-events="none"/><g fill="rgba(0, 0, 0, 1)" font-family="Helvetica" font-weight="bold" pointer-events="none" text-anchor="middle" font-size="12px"><text x="1139.5" y="19.5">Package</text></g><path d="M 1020 30 M 1260 30 M 1260 60 M 1020 60" fill="none" stroke="rgba(0, 0, 0, 1)" stroke-miterlimit="10" pointer-events="none"/><path d="M 1020 30 M 1050 30 M 1050 60 M 1020 60" fill="none" stroke="rgba(0, 0, 0, 1)" stroke-miterlimit="10" pointer-events="none"/><path d="M 1050 30 M 1260 30 M 1260 60 M 1050 60" fill="none" stroke="rgba(0, 0, 0, 1)" stroke-miterlimit="10" pointer-events="none"/><g fill="rgba(0, 0, 0, 1)" font-family="Helvetica" pointer-events="none" clip-path="url(#mx-clip-1056-30-204-30-0)" font-size="12px"><text x="1057.5" y="49.5">full_name : string</text></g><path d="M 1020 60 M 1260 60 M 1260 90 M 1020 90" fill="none" stroke="rgba(0, 0, 0, 1)" stroke-miterlimit="10" pointer-events="none"/><path d="M 1020 60 M 1050 60 M 1050 90 M 1020 90" fill="none" stroke="rgba(0, 0, 0, 1)" stroke-miterlimit="10" pointer-events="none"/><path d="M 1050 60 M 1260 60 M 1260 90 M 1050 90" fill="none" stroke="rgba(0, 0, 0, 1)" stroke-miterlimit="10" pointer-events="none"/><g fill="rgba(0, 0, 0, 1)" font-family="Helvetica" pointer-events="none" clip-path="url(#mx-clip-1056-60-204-30-0)" font-size="12px"><text x="1057.5" y="79.5">short_name : string</text></g><path d="M 1020 90 M 1260 90 M 1260 120 M 1020 120" fill="none" stroke="rgba(0, 0, 0, 1)" stroke-miterlimit="10" pointer-events="none"/><path d="M 1020 90 M 1050 90 M 1050 120 M 1020 120" fill="none" stroke="rgba(0, 0, 0, 1)" stroke-miterlimit="10" pointer-events="none"/><path d="M 1050 90 M 1260 90 M 1260 120 M 1050 120" fill="none" stroke="rgba(0, 0, 0, 1)" stroke-miterlimit="10" pointer-events="none"/><g fill="rgba(0, 0, 0, 1)" font-family="Helvetica" pointer-events="none" clip-path="url(#mx-clip-1056-90-204-30-0)" font-size="12px"><text x="1057.5" y="109.5">opam_maintainer : string</text></g><path d="M 1020 120 M 1260 120 M 1260 150 M 1020 150" fill="none" stroke="rgba(0, 0, 0, 1)" stroke-miterlimit="10" pointer-events="none"/><path d="M 1020 120 M 1050 120 M 1050 150 M 1020 150" fill="none" stroke="rgba(0, 0, 0, 1)" stroke-miterlimit="10" pointer-events="none"/><path d="M 1050 120 M 1260 120 M 1260 150 M 1050 150" fill="none" stroke="rgba(0, 0, 0, 1)" stroke-miterlimit="10" pointer-events="none"/><g fill="rgba(0, 0, 0, 1)" font-family="Helvetica" pointer-events="none" clip-path="url(#mx-clip-1056-120-204-30-0)" font-size="12px"><text x="1057.5" y="139.5">opam_version : string</text></g><path d="M 1020 150 M 1260 150 M 1260 180 M 1020 180" fill="none" stroke="rgba(0, 0, 0, 1)" stroke-miterlimit="10" pointer-events="none"/><path d="M 1020 150 M 1050 150 M 1050 180 M 1020 180" fill="none" stroke="rgba(0, 0, 0, 1)" stroke-miterlimit="10" pointer-events="none"/><path d="M 1050 150 M 1260 150 M 1260 180 M 1050 180" fill="none" stroke="rgba(0, 0, 0, 1)" stroke-miterlimit="10" pointer-events="none"/><g fill="rgba(0, 0, 0, 1)" font-family="Helvetica" pointer-events="none" clip-path="url(#mx-clip-1056-150-204-30-0)" font-size="12px"><text x="1057.5" y="169.5">synopsis : string</text></g><path d="M 1020 180 M 1260 180 M 1260 210 M 1020 210" fill="none" stroke="rgba(0, 0, 0, 1)" stroke-miterlimit="10" pointer-events="none"/><path d="M 1020 180 M 1050 180 M 1050 210 M 1020 210" fill="none" stroke="rgba(0, 0, 0, 1)" stroke-miterlimit="10" pointer-events="none"/><path d="M 1050 180 M 1260 180 M 1260 210 M 1050 210" fill="none" stroke="rgba(0, 0, 0, 1)" stroke-miterlimit="10" pointer-events="none"/><g fill="rgba(0, 0, 0, 1)" font-family="Helvetica" pointer-events="none" clip-path="url(#mx-clip-1056-180-204-30-0)" font-size="12px"><text x="1057.5" y="199.5">description : string</text></g><path d="M 1020 210 M 1260 210 M 1260 240 M 1020 240" fill="none" stroke="rgba(0, 0, 0, 1)" stroke-miterlimit="10" pointer-events="none"/><path d="M 1020 210 M 1050 210 M 1050 240 M 1020 240" fill="none" stroke="rgba(0, 0, 0, 1)" stroke-miterlimit="10" pointer-events="none"/><path d="M 1050 210 M 1260 210 M 1260 240 M 1050 240" fill="none" stroke="rgba(0, 0, 0, 1)" stroke-miterlimit="10" pointer-events="none"/><g fill="rgba(0, 0, 0, 1)" font-family="Helvetica" pointer-events="none" clip-path="url(#mx-clip-1056-210-204-30-0)" font-size="12px"><text x="1057.5" y="229.5">plugin : boolean</text></g><path d="M 1020 240 M 1260 240 M 1260 270 M 1020 270" fill="none" stroke="rgba(0, 0, 0, 1)" stroke-miterlimit="10" pointer-events="none"/><path d="M 1020 240 M 1050 240 M 1050 270 M 1020 270" fill="none" stroke="rgba(0, 0, 0, 1)" stroke-miterlimit="10" pointer-events="none"/><path d="M 1050 240 M 1260 240 M 1260 270 M 1050 270" fill="none" stroke="rgba(0, 0, 0, 1)" stroke-miterlimit="10" pointer-events="none"/><g fill="rgba(0, 0, 0, 1)" font-family="Helvetica" pointer-events="none" clip-path="url(#mx-clip-1056-240-204-30-0)" font-size="12px"><text x="1057.5" y="259.5">build : string</text></g><path d="M 1020 270 M 1260 270 M 1260 300 M 1020 300" fill="none" stroke="rgba(0, 0, 0, 1)" stroke-miterlimit="10" pointer-events="none"/><path d="M 1020 270 M 1050 270 M 1050 300 M 1020 300" fill="none" stroke="rgba(0, 0, 0, 1)" stroke-miterlimit="10" pointer-events="none"/><path d="M 1050 270 M 1260 270 M 1260 300 M 1050 300" fill="none" stroke="rgba(0, 0, 0, 1)" stroke-miterlimit="10" pointer-events="none"/><g fill="rgba(0, 0, 0, 1)" font-family="Helvetica" pointer-events="none" clip-path="url(#mx-clip-1056-270-204-30-0)" font-size="12px"><text x="1057.5" y="289.5">documentation : string</text></g><path d="M 635 40 L 635 10 L 885 10 L 885 40" fill="rgba(255, 255, 255, 1)" stroke="rgba(0, 0, 0, 1)" stroke-miterlimit="10" pointer-events="none"/><path d="M 635 40 L 635 220 L 885 220 L 885 40" fill="none" stroke="rgba(0, 0, 0, 1)" stroke-miterlimit="10" pointer-events="none"/><path d="M 635 40 L 885 40" fill="none" stroke="rgba(0, 0, 0, 1)" stroke-miterlimit="10" pointer-events="none"/><path d="M 665 40 L 665 220" fill="none" stroke="rgba(0, 0, 0, 1)" stroke-miterlimit="10" pointer-events="none"/><g fill="rgba(0, 0, 0, 1)" font-family="Helvetica" font-weight="bold" pointer-events="none" text-anchor="middle" font-size="12px"><text x="759.5" y="29.5">Project</text></g><path d="M 635 40 M 885 40 M 885 70 M 635 70" fill="none" stroke="rgba(0, 0, 0, 1)" stroke-miterlimit="10" pointer-events="none"/><path d="M 635 40 M 665 40 M 665 70 M 635 70" fill="none" stroke="rgba(0, 0, 0, 1)" stroke-miterlimit="10" pointer-events="none"/><path d="M 665 40 M 885 40 M 885 70 M 665 70" fill="none" stroke="rgba(0, 0, 0, 1)" stroke-miterlimit="10" pointer-events="none"/><g fill="rgba(0, 0, 0, 1)" font-family="Helvetica" pointer-events="none" clip-path="url(#mx-clip-671-40-214-30-0)" font-size="12px"><text x="672.5" y="59.5">full_name : string</text></g><path d="M 635 70 M 885 70 M 885 100 M 635 100" fill="none" stroke="rgba(0, 0, 0, 1)" stroke-miterlimit="10" pointer-events="none"/><path d="M 635 70 M 665 70 M 665 100 M 635 100" fill="none" stroke="rgba(0, 0, 0, 1)" stroke-miterlimit="10" pointer-events="none"/><path d="M 665 70 M 885 70 M 885 100 M 665 100" fill="none" stroke="rgba(0, 0, 0, 1)" stroke-miterlimit="10" pointer-events="none"/><g fill="rgba(0, 0, 0, 1)" font-family="Helvetica" pointer-events="none" clip-path="url(#mx-clip-671-70-214-30-0)" font-size="12px"><text x="672.5" y="89.5">repo_name : string</text></g><path d="M 635 100 M 885 100 M 885 130 M 635 130" fill="none" stroke="rgba(0, 0, 0, 1)" stroke-miterlimit="10" pointer-events="none"/><path d="M 635 100 M 665 100 M 665 130 M 635 130" fill="none" stroke="rgba(0, 0, 0, 1)" stroke-miterlimit="10" pointer-events="none"/><path d="M 665 100 M 885 100 M 885 130 M 665 130" fill="none" stroke="rgba(0, 0, 0, 1)" stroke-miterlimit="10" pointer-events="none"/><g fill="rgba(0, 0, 0, 1)" font-family="Helvetica" pointer-events="none" clip-path="url(#mx-clip-671-100-214-30-0)" font-size="12px"><text x="672.5" y="119.5">repo_organization : string</text></g><path d="M 635 130 M 885 130 M 885 160 M 635 160" fill="none" stroke="rgba(0, 0, 0, 1)" stroke-miterlimit="10" pointer-events="none"/><path d="M 635 130 M 665 130 M 665 160 M 635 160" fill="none" stroke="rgba(0, 0, 0, 1)" stroke-miterlimit="10" pointer-events="none"/><path d="M 665 130 M 885 130 M 885 160 M 665 160" fill="none" stroke="rgba(0, 0, 0, 1)" stroke-miterlimit="10" pointer-events="none"/><g fill="rgba(0, 0, 0, 1)" font-family="Helvetica" pointer-events="none" clip-path="url(#mx-clip-671-130-214-30-0)" font-size="12px"><text x="672.5" y="149.5">repo_branch : string</text></g><path d="M 635 160 M 885 160 M 885 190 M 635 190" fill="none" stroke="rgba(0, 0, 0, 1)" stroke-miterlimit="10" pointer-events="none"/><path d="M 635 160 M 665 160 M 665 190 M 635 190" fill="none" stroke="rgba(0, 0, 0, 1)" stroke-miterlimit="10" pointer-events="none"/><path d="M 665 160 M 885 160 M 885 190 M 665 190" fill="none" stroke="rgba(0, 0, 0, 1)" stroke-miterlimit="10" pointer-events="none"/><g fill="rgba(0, 0, 0, 1)" font-family="Helvetica" pointer-events="none" clip-path="url(#mx-clip-671-160-214-30-0)" font-size="12px"><text x="672.5" y="179.5">community : boolean</text></g><path d="M 635 190 M 885 190 M 885 220 M 635 220" fill="none" stroke="rgba(0, 0, 0, 1)" stroke-miterlimit="10" pointer-events="none"/><path d="M 635 190 M 665 190 M 665 220 M 635 220" fill="none" stroke="rgba(0, 0, 0, 1)" stroke-miterlimit="10" pointer-events="none"/><path d="M 665 190 M 885 190 M 885 220 M 665 220" fill="none" stroke="rgba(0, 0, 0, 1)" stroke-miterlimit="10" pointer-events="none"/><g fill="rgba(0, 0, 0, 1)" font-family="Helvetica" pointer-events="none" clip-path="url(#mx-clip-671-190-214-30-0)" font-size="12px"><text x="672.5" y="209.5">description : string</text></g><path d="M 320 70 L 320 40 L 560 40 L 560 70" fill="rgba(255, 255, 255, 1)" stroke="rgba(0, 0, 0, 1)" stroke-miterlimit="10" pointer-events="none"/><path d="M 320 70 L 320 130 L 560 130 L 560 70" fill="none" stroke="rgba(0, 0, 0, 1)" stroke-miterlimit="10" pointer-events="none"/><path d="M 320 70 L 560 70" fill="none" stroke="rgba(0, 0, 0, 1)" stroke-miterlimit="10" pointer-events="none"/><path d="M 350 70 L 350 130" fill="none" stroke="rgba(0, 0, 0, 1)" stroke-miterlimit="10" pointer-events="none"/><g fill="rgba(0, 0, 0, 1)" font-family="Helvetica" font-weight="bold" pointer-events="none" text-anchor="middle" font-size="12px"><text x="439.5" y="59.5">Maintainer</text></g><path d="M 320 70 M 560 70 M 560 100 M 320 100" fill="none" stroke="rgba(0, 0, 0, 1)" stroke-miterlimit="10" pointer-events="none"/><path d="M 320 70 M 350 70 M 350 100 M 320 100" fill="none" stroke="rgba(0, 0, 0, 1)" stroke-miterlimit="10" pointer-events="none"/><path d="M 350 70 M 560 70 M 560 100 M 350 100" fill="none" stroke="rgba(0, 0, 0, 1)" stroke-miterlimit="10" pointer-events="none"/><g fill="rgba(0, 0, 0, 1)" font-family="Helvetica" pointer-events="none" clip-path="url(#mx-clip-356-70-204-30-0)" font-size="12px"><text x="357.5" y="89.5">full_name : string</text></g><path d="M 320 100 M 560 100 M 560 130 M 320 130" fill="none" stroke="rgba(0, 0, 0, 1)" stroke-miterlimit="10" pointer-events="none"/><path d="M 320 100 M 350 100 M 350 130 M 320 130" fill="none" stroke="rgba(0, 0, 0, 1)" stroke-miterlimit="10" pointer-events="none"/><path d="M 350 100 M 560 100 M 560 130 M 350 130" fill="none" stroke="rgba(0, 0, 0, 1)" stroke-miterlimit="10" pointer-events="none"/><g fill="rgba(0, 0, 0, 1)" font-family="Helvetica" pointer-events="none" clip-path="url(#mx-clip-356-100-204-30-0)" font-size="12px"><text x="357.5" y="119.5">nickname : string</text></g><path d="M 310 200 L 310 170 L 550 170 L 550 200" fill="rgba(255, 255, 255, 1)" stroke="rgba(0, 0, 0, 1)" stroke-miterlimit="10" pointer-events="none"/><path d="M 310 200 L 310 290 L 550 290 L 550 200" fill="none" stroke="rgba(0, 0, 0, 1)" stroke-miterlimit="10" pointer-events="none"/><path d="M 310 200 L 550 200" fill="none" stroke="rgba(0, 0, 0, 1)" stroke-miterlimit="10" pointer-events="none"/><path d="M 340 200 L 340 290" fill="none" stroke="rgba(0, 0, 0, 1)" stroke-miterlimit="10" pointer-events="none"/><g fill="rgba(0, 0, 0, 1)" font-family="Helvetica" font-weight="bold" pointer-events="none" text-anchor="middle" font-size="12px"><text x="429.5" y="189.5">Publication</text></g><path d="M 310 200 M 550 200 M 550 230 M 310 230" fill="none" stroke="rgba(0, 0, 0, 1)" stroke-miterlimit="10" pointer-events="none"/><path d="M 310 200 M 340 200 M 340 230 M 310 230" fill="none" stroke="rgba(0, 0, 0, 1)" stroke-miterlimit="10" pointer-events="none"/><path d="M 340 200 M 550 200 M 550 230 M 340 230" fill="none" stroke="rgba(0, 0, 0, 1)" stroke-miterlimit="10" pointer-events="none"/><g fill="rgba(0, 0, 0, 1)" font-family="Helvetica" pointer-events="none" clip-path="url(#mx-clip-346-200-204-30-0)" font-size="12px"><text x="347.5" y="219.5">doi : string</text></g><path d="M 310 230 M 550 230 M 550 260 M 310 260" fill="none" stroke="rgba(0, 0, 0, 1)" stroke-miterlimit="10" pointer-events="none"/><path d="M 310 230 M 340 230 M 340 260 M 310 260" fill="none" stroke="rgba(0, 0, 0, 1)" stroke-miterlimit="10" pointer-events="none"/><path d="M 340 230 M 550 230 M 550 260 M 340 260" fill="none" stroke="rgba(0, 0, 0, 1)" stroke-miterlimit="10" pointer-events="none"/><g fill="rgba(0, 0, 0, 1)" font-family="Helvetica" pointer-events="none" clip-path="url(#mx-clip-346-230-204-30-0)" font-size="12px"><text x="347.5" y="249.5">title : string</text></g><path d="M 310 260 M 550 260 M 550 290 M 310 290" fill="none" stroke="rgba(0, 0, 0, 1)" stroke-miterlimit="10" pointer-events="none"/><path d="M 310 260 M 340 260 M 340 290 M 310 290" fill="none" stroke="rgba(0, 0, 0, 1)" stroke-miterlimit="10" pointer-events="none"/><path d="M 340 260 M 550 260 M 550 290 M 340 290" fill="none" stroke="rgba(0, 0, 0, 1)" stroke-miterlimit="10" pointer-events="none"/><g fill="rgba(0, 0, 0, 1)" font-family="Helvetica" pointer-events="none" clip-path="url(#mx-clip-346-260-204-30-0)" font-size="12px"><text x="347.5" y="279.5">url : string</text></g><path d="M 635 10 L 615 10 Q 605 10 602.21 19.6 L 594.71 45.43 Q 591.92 55.03 581.92 55.03 L 561.92 55.03" fill="none" stroke="rgba(0, 0, 0, 1)" stroke-miterlimit="10" pointer-events="none"/><path d="M 631 14 L 631 6" fill="none" stroke="rgba(0, 0, 0, 1)" stroke-miterlimit="10" pointer-events="none"/><ellipse cx="573.92" cy="55.03" rx="3" ry="3" fill="#ffffff" stroke="rgba(0, 0, 0, 1)" pointer-events="none"/><path d="M 561.92 59.03 L 569.92 55.03 L 561.92 51.03" fill="none" stroke="rgba(0, 0, 0, 1)" stroke-miterlimit="10" pointer-events="none"/><path d="M 634 46.12 L 614 46.12 Q 604 46.12 602.34 55.98 L 581.66 179.1 Q 580 188.96 570 188.96 L 550 188.96" fill="none" stroke="rgba(0, 0, 0, 1)" stroke-miterlimit="10" pointer-events="none"/><path d="M 630 50.12 L 630 42.12" fill="none" stroke="rgba(0, 0, 0, 1)" stroke-miterlimit="10" pointer-events="none"/><ellipse cx="562" cy="188.96" rx="3" ry="3" fill="#ffffff" stroke="rgba(0, 0, 0, 1)" pointer-events="none"/><path d="M 550 192.96 L 558 188.96 L 550 184.96" fill="none" stroke="rgba(0, 0, 0, 1)" stroke-miterlimit="10" pointer-events="none"/><path d="M 1340 60 L 1340 30 L 1580 30 L 1580 60" fill="rgba(255, 255, 255, 1)" stroke="rgba(0, 0, 0, 1)" stroke-miterlimit="10" pointer-events="none"/><path d="M 1340 60 L 1340 120 L 1580 120 L 1580 60" fill="none" stroke="rgba(0, 0, 0, 1)" stroke-miterlimit="10" pointer-events="none"/><path d="M 1340 60 L 1580 60" fill="none" stroke="rgba(0, 0, 0, 1)" stroke-miterlimit="10" pointer-events="none"/><path d="M 1370 60 L 1370 120" fill="none" stroke="rgba(0, 0, 0, 1)" stroke-miterlimit="10" pointer-events="none"/><g fill="rgba(0, 0, 0, 1)" font-family="Helvetica" font-weight="bold" pointer-events="none" text-anchor="middle" font-size="12px"><text x="1459.5" y="49.5">Author</text></g><path d="M 1340 60 M 1580 60 M 1580 90 M 1340 90" fill="none" stroke="rgba(0, 0, 0, 1)" stroke-miterlimit="10" pointer-events="none"/><path d="M 1340 60 M 1370 60 M 1370 90 M 1340 90" fill="none" stroke="rgba(0, 0, 0, 1)" stroke-miterlimit="10" pointer-events="none"/><path d="M 1370 60 M 1580 60 M 1580 90 M 1370 90" fill="none" stroke="rgba(0, 0, 0, 1)" stroke-miterlimit="10" pointer-events="none"/><g fill="rgba(0, 0, 0, 1)" font-family="Helvetica" pointer-events="none" clip-path="url(#mx-clip-1376-60-204-30-0)" font-size="12px"><text x="1377.5" y="79.5">full_name : string</text></g><path d="M 1340 90 M 1580 90 M 1580 120 M 1340 120" fill="none" stroke="rgba(0, 0, 0, 1)" stroke-miterlimit="10" pointer-events="none"/><path d="M 1340 90 M 1370 90 M 1370 120 M 1340 120" fill="none" stroke="rgba(0, 0, 0, 1)" stroke-miterlimit="10" pointer-events="none"/><path d="M 1370 90 M 1580 90 M 1580 120 M 1370 120" fill="none" stroke="rgba(0, 0, 0, 1)" stroke-miterlimit="10" pointer-events="none"/><g fill="rgba(0, 0, 0, 1)" font-family="Helvetica" pointer-events="none" clip-path="url(#mx-clip-1376-90-204-30-0)" font-size="12px"><text x="1377.5" y="109.5">initial : boolean</text></g><path d="M 1263.12 24 L 1283.12 24 Q 1293.12 24 1299.1 32.01 L 1303.59 38.03 Q 1308.08 44.04 1318.08 44.04 L 1338.08 44.04" fill="none" stroke="rgba(0, 0, 0, 1)" stroke-miterlimit="10" pointer-events="none"/><path d="M 1267.12 20 L 1267.12 28" fill="none" stroke="rgba(0, 0, 0, 1)" stroke-miterlimit="10" pointer-events="none"/><ellipse cx="1326.08" cy="44.04" rx="3" ry="3" fill="#ffffff" stroke="rgba(0, 0, 0, 1)" pointer-events="none"/><path d="M 1338.08 40.04 L 1330.08 44.04 L 1338.08 48.04" fill="none" stroke="rgba(0, 0, 0, 1)" stroke-miterlimit="10" pointer-events="none"/><path d="M 1340 170 L 1340 140 L 1580 140 L 1580 170" fill="rgba(255, 255, 255, 1)" stroke="rgba(0, 0, 0, 1)" stroke-miterlimit="10" pointer-events="none"/><path d="M 1340 170 L 1340 230 L 1580 230 L 1580 170" fill="none" stroke="rgba(0, 0, 0, 1)" stroke-miterlimit="10" pointer-events="none"/><path d="M 1340 170 L 1580 170" fill="none" stroke="rgba(0, 0, 0, 1)" stroke-miterlimit="10" pointer-events="none"/><path d="M 1370 170 L 1370 230" fill="none" stroke="rgba(0, 0, 0, 1)" stroke-miterlimit="10" pointer-events="none"/><g fill="rgba(0, 0, 0, 1)" font-family="Helvetica" font-weight="bold" pointer-events="none" text-anchor="middle" font-size="12px"><text x="1459.5" y="159.5">Dependency</text></g><path d="M 1340 170 M 1580 170 M 1580 200 M 1340 200" fill="none" stroke="rgba(0, 0, 0, 1)" stroke-miterlimit="10" pointer-events="none"/><path d="M 1340 170 M 1370 170 M 1370 200 M 1340 200" fill="none" stroke="rgba(0, 0, 0, 1)" stroke-miterlimit="10" pointer-events="none"/><path d="M 1370 170 M 1580 170 M 1580 200 M 1370 200" fill="none" stroke="rgba(0, 0, 0, 1)" stroke-miterlimit="10" pointer-events="none"/><g fill="rgba(0, 0, 0, 1)" font-family="Helvetica" pointer-events="none" clip-path="url(#mx-clip-1376-170-204-30-0)" font-size="12px"><text x="1377.5" y="189.5">text : string</text></g><path d="M 1340 200 M 1580 200 M 1580 230 M 1340 230" fill="none" stroke="rgba(0, 0, 0, 1)" stroke-miterlimit="10" pointer-events="none"/><path d="M 1340 200 M 1370 200 M 1370 230 M 1340 230" fill="none" stroke="rgba(0, 0, 0, 1)" stroke-miterlimit="10" pointer-events="none"/><path d="M 1370 200 M 1580 200 M 1580 230 M 1370 230" fill="none" stroke="rgba(0, 0, 0, 1)" stroke-miterlimit="10" pointer-events="none"/><g fill="rgba(0, 0, 0, 1)" font-family="Helvetica" pointer-events="none" clip-path="url(#mx-clip-1376-200-204-30-0)" font-size="12px"><text x="1377.5" y="219.5">opam : string</text></g><path d="M 1340 290 L 1340 260 L 1580 260 L 1580 290" fill="rgba(255, 255, 255, 1)" stroke="rgba(0, 0, 0, 1)" stroke-miterlimit="10" pointer-events="none"/><path d="M 1340 290 L 1340 320 L 1580 320 L 1580 290" fill="none" stroke="rgba(0, 0, 0, 1)" stroke-miterlimit="10" pointer-events="none"/><path d="M 1340 290 L 1580 290" fill="none" stroke="rgba(0, 0, 0, 1)" stroke-miterlimit="10" pointer-events="none"/><path d="M 1370 290 L 1370 320" fill="none" stroke="rgba(0, 0, 0, 1)" stroke-miterlimit="10" pointer-events="none"/><g fill="rgba(0, 0, 0, 1)" font-family="Helvetica" font-weight="bold" pointer-events="none" text-anchor="middle" font-size="12px"><text x="1459.5" y="279.5">Coq namespace</text></g><path d="M 1340 290 M 1580 290 M 1580 320 M 1340 320" fill="none" stroke="rgba(0, 0, 0, 1)" stroke-miterlimit="10" pointer-events="none"/><path d="M 1340 290 M 1370 290 M 1370 320 M 1340 320" fill="none" stroke="rgba(0, 0, 0, 1)" stroke-miterlimit="10" pointer-events="none"/><path d="M 1370 290 M 1580 290 M 1580 320 M 1370 320" fill="none" stroke="rgba(0, 0, 0, 1)" stroke-miterlimit="10" pointer-events="none"/><g fill="rgba(0, 0, 0, 1)" font-family="Helvetica" pointer-events="none" clip-path="url(#mx-clip-1376-290-204-30-0)" font-size="12px"><text x="1377.5" y="309.5">logpath : string</text></g><path d="M 700 360 L 700 330 L 940 330 L 940 360" fill="rgba(255, 255, 255, 1)" stroke="rgba(0, 0, 0, 1)" stroke-miterlimit="10" pointer-events="none"/><path d="M 700 360 L 700 420 L 940 420 L 940 360" fill="none" stroke="rgba(0, 0, 0, 1)" stroke-miterlimit="10" pointer-events="none"/><path d="M 700 360 L 940 360" fill="none" stroke="rgba(0, 0, 0, 1)" stroke-miterlimit="10" pointer-events="none"/><path d="M 730 360 L 730 420" fill="none" stroke="rgba(0, 0, 0, 1)" stroke-miterlimit="10" pointer-events="none"/><g fill="rgba(0, 0, 0, 1)" font-family="Helvetica" font-weight="bold" pointer-events="none" text-anchor="middle" font-size="12px"><text x="819.5" y="349.5">License</text></g><path d="M 700 360 M 940 360 M 940 390 M 700 390" fill="none" stroke="rgba(0, 0, 0, 1)" stroke-miterlimit="10" pointer-events="none"/><path d="M 700 360 M 730 360 M 730 390 M 700 390" fill="none" stroke="rgba(0, 0, 0, 1)" stroke-miterlimit="10" pointer-events="none"/><path d="M 730 360 M 940 360 M 940 390 M 730 390" fill="none" stroke="rgba(0, 0, 0, 1)" stroke-miterlimit="10" pointer-events="none"/><g fill="rgba(0, 0, 0, 1)" font-family="Helvetica" pointer-events="none" clip-path="url(#mx-clip-736-360-204-30-0)" font-size="12px"><text x="737.5" y="379.5">identifier : string</text></g><path d="M 700 390 M 940 390 M 940 420 M 700 420" fill="none" stroke="rgba(0, 0, 0, 1)" stroke-miterlimit="10" pointer-events="none"/><path d="M 700 390 M 730 390 M 730 420 M 700 420" fill="none" stroke="rgba(0, 0, 0, 1)" stroke-miterlimit="10" pointer-events="none"/><path d="M 730 390 M 940 390 M 940 420 M 730 420" fill="none" stroke="rgba(0, 0, 0, 1)" stroke-miterlimit="10" pointer-events="none"/><g fill="rgba(0, 0, 0, 1)" font-family="Helvetica" pointer-events="none" clip-path="url(#mx-clip-736-390-204-30-0)" font-size="12px"><text x="737.5" y="409.5">full_name : string</text></g><path d="M 1330 375 L 1330 345 L 1570 345 L 1570 375" fill="rgba(255, 255, 255, 1)" stroke="rgba(0, 0, 0, 1)" stroke-miterlimit="10" pointer-events="none"/><path d="M 1330 375 L 1330 405 L 1570 405 L 1570 375" fill="none" stroke="rgba(0, 0, 0, 1)" stroke-miterlimit="10" pointer-events="none"/><path d="M 1330 375 L 1570 375" fill="none" stroke="rgba(0, 0, 0, 1)" stroke-miterlimit="10" pointer-events="none"/><path d="M 1360 375 L 1360 405" fill="none" stroke="rgba(0, 0, 0, 1)" stroke-miterlimit="10" pointer-events="none"/><g fill="rgba(0, 0, 0, 1)" font-family="Helvetica" font-weight="bold" pointer-events="none" text-anchor="middle" font-size="12px"><text x="1449.5" y="364.5">Keyword</text></g><path d="M 1330 375 M 1570 375 M 1570 405 M 1330 405" fill="none" stroke="rgba(0, 0, 0, 1)" stroke-miterlimit="10" pointer-events="none"/><path d="M 1330 375 M 1360 375 M 1360 405 M 1330 405" fill="none" stroke="rgba(0, 0, 0, 1)" stroke-miterlimit="10" pointer-events="none"/><path d="M 1360 375 M 1570 375 M 1570 405 M 1360 405" fill="none" stroke="rgba(0, 0, 0, 1)" stroke-miterlimit="10" pointer-events="none"/><g fill="rgba(0, 0, 0, 1)" font-family="Helvetica" pointer-events="none" clip-path="url(#mx-clip-1366-375-204-30-0)" font-size="12px"><text x="1367.5" y="394.5">name : string</text></g><path d="M 1020 45 L 1000 45 Q 990 45 989.4 54.98 L 972.52 336.04 Q 971.92 346.02 961.92 346.02 L 941.92 346.02" fill="none" stroke="rgba(0, 0, 0, 1)" stroke-miterlimit="10" pointer-events="none"/><path d="M 1016 49 L 1016 41" fill="none" stroke="rgba(0, 0, 0, 1)" stroke-miterlimit="10" pointer-events="none"/><ellipse cx="953.92" cy="346.02" rx="3" ry="3" fill="#ffffff" stroke="rgba(0, 0, 0, 1)" pointer-events="none"/><path d="M 941.92 350.02 L 949.92 346.02 L 941.92 342.02" fill="none" stroke="rgba(0, 0, 0, 1)" stroke-miterlimit="10" pointer-events="none"/><path d="M 1320 460 L 1320 430 L 1560 430 L 1560 460" fill="rgba(255, 255, 255, 1)" stroke="rgba(0, 0, 0, 1)" stroke-miterlimit="10" pointer-events="none"/><path d="M 1320 460 L 1320 490 L 1560 490 L 1560 460" fill="none" stroke="rgba(0, 0, 0, 1)" stroke-miterlimit="10" pointer-events="none"/><path d="M 1320 460 L 1560 460" fill="none" stroke="rgba(0, 0, 0, 1)" stroke-miterlimit="10" pointer-events="none"/><path d="M 1350 460 L 1350 490" fill="none" stroke="rgba(0, 0, 0, 1)" stroke-miterlimit="10" pointer-events="none"/><g fill="rgba(0, 0, 0, 1)" font-family="Helvetica" font-weight="bold" pointer-events="none" text-anchor="middle" font-size="12px"><text x="1439.5" y="449.5">Category</text></g><path d="M 1320 460 M 1560 460 M 1560 490 M 1320 490" fill="none" stroke="rgba(0, 0, 0, 1)" stroke-miterlimit="10" pointer-events="none"/><path d="M 1320 460 M 1350 460 M 1350 490 M 1320 490" fill="none" stroke="rgba(0, 0, 0, 1)" stroke-miterlimit="10" pointer-events="none"/><path d="M 1350 460 M 1560 460 M 1560 490 M 1350 490" fill="none" stroke="rgba(0, 0, 0, 1)" stroke-miterlimit="10" pointer-events="none"/><g fill="rgba(0, 0, 0, 1)" font-family="Helvetica" pointer-events="none" clip-path="url(#mx-clip-1356-460-204-30-0)" font-size="12px"><text x="1357.5" y="479.5">name : string</text></g><path d="M 320 340 L 320 310 L 560 310 L 560 340" fill="rgba(255, 255, 255, 1)" stroke="rgba(0, 0, 0, 1)" stroke-miterlimit="10" pointer-events="none"/><path d="M 320 340 L 320 370 L 560 370 L 560 340" fill="none" stroke="rgba(0, 0, 0, 1)" stroke-miterlimit="10" pointer-events="none"/><path d="M 320 340 L 560 340" fill="none" stroke="rgba(0, 0, 0, 1)" stroke-miterlimit="10" pointer-events="none"/><path d="M 350 340 L 350 370" fill="none" stroke="rgba(0, 0, 0, 1)" stroke-miterlimit="10" pointer-events="none"/><g fill="rgba(0, 0, 0, 1)" font-family="Helvetica" font-weight="bold" pointer-events="none" text-anchor="middle" font-size="12px"><text x="439.5" y="329.5">Continuous Integration Configuration</text></g><path d="M 320 340 M 560 340 M 560 370 M 320 370" fill="none" stroke="rgba(0, 0, 0, 1)" stroke-miterlimit="10" pointer-events="none"/><path d="M 320 340 M 350 340 M 350 370 M 320 370" fill="none" stroke="rgba(0, 0, 0, 1)" stroke-miterlimit="10" pointer-events="none"/><path d="M 350 340 M 560 340 M 560 370 M 350 370" fill="none" stroke="rgba(0, 0, 0, 1)" stroke-miterlimit="10" pointer-events="none"/><g fill="rgba(0, 0, 0, 1)" font-family="Helvetica" pointer-events="none" clip-path="url(#mx-clip-356-340-204-30-0)" font-size="12px"><text x="357.5" y="359.5">configuration : string</text></g><path d="M 635 175 L 615 175 Q 605 175 604 184.95 L 591 315.05 Q 590 325 580 325 L 560 325" fill="none" stroke="rgba(0, 0, 0, 1)" stroke-miterlimit="10" pointer-events="none"/><path d="M 631 179 L 631 171" fill="none" stroke="rgba(0, 0, 0, 1)" stroke-miterlimit="10" pointer-events="none"/><ellipse cx="572" cy="325" rx="3" ry="3" fill="#ffffff" stroke="rgba(0, 0, 0, 1)" pointer-events="none"/><path d="M 560 329 L 568 325 L 560 321" fill="none" stroke="rgba(0, 0, 0, 1)" stroke-miterlimit="10" pointer-events="none"/><path d="M 1260 45 L 1280 45 Q 1290 45 1291.62 54.87 L 1306.46 145.16 Q 1308.08 155.03 1318.08 155.03 L 1338.08 155.03" fill="none" stroke="rgba(0, 0, 0, 1)" stroke-miterlimit="10" pointer-events="none"/><path d="M 1264 41 L 1264 49" fill="none" stroke="rgba(0, 0, 0, 1)" stroke-miterlimit="10" pointer-events="none"/><ellipse cx="1326.08" cy="155.03" rx="3" ry="3" fill="#ffffff" stroke="rgba(0, 0, 0, 1)" pointer-events="none"/><path d="M 1338.08 151.03 L 1330.08 155.03 L 1338.08 159.03" fill="none" stroke="rgba(0, 0, 0, 1)" stroke-miterlimit="10" pointer-events="none"/><path d="M 1260 75 L 1280 75 Q 1290 75 1291 84.95 L 1309 265.05 Q 1310 275 1320 275 L 1340 275" fill="none" stroke="rgba(0, 0, 0, 1)" stroke-miterlimit="10" pointer-events="none"/><path d="M 1264 71 L 1264 79" fill="none" stroke="rgba(0, 0, 0, 1)" stroke-miterlimit="10" pointer-events="none"/><ellipse cx="1328" cy="275" rx="3" ry="3" fill="#ffffff" stroke="rgba(0, 0, 0, 1)" pointer-events="none"/><path d="M 1340 271 L 1332 275 L 1340 279" fill="none" stroke="rgba(0, 0, 0, 1)" stroke-miterlimit="10" pointer-events="none"/><path d="M 0 340 L 0 310 L 240 310 L 240 340" fill="rgba(255, 255, 255, 1)" stroke="rgba(0, 0, 0, 1)" stroke-miterlimit="10" pointer-events="none"/><path d="M 0 340 L 0 370 L 240 370 L 240 340" fill="none" stroke="rgba(0, 0, 0, 1)" stroke-miterlimit="10" pointer-events="none"/><path d="M 0 340 L 240 340" fill="none" stroke="rgba(0, 0, 0, 1)" stroke-miterlimit="10" pointer-events="none"/><path d="M 30 340 L 30 370" fill="none" stroke="rgba(0, 0, 0, 1)" stroke-miterlimit="10" pointer-events="none"/><g fill="rgba(0, 0, 0, 1)" font-family="Helvetica" font-weight="bold" pointer-events="none" text-anchor="middle" font-size="12px"><text x="119.5" y="329.5">Continuous Integration System</text></g><path d="M 0 340 M 240 340 M 240 370 M 0 370" fill="none" stroke="rgba(0, 0, 0, 1)" stroke-miterlimit="10" pointer-events="none"/><path d="M 0 340 M 30 340 M 30 370 M 0 370" fill="none" stroke="rgba(0, 0, 0, 1)" stroke-miterlimit="10" pointer-events="none"/><path d="M 30 340 M 240 340 M 240 370 M 30 370" fill="none" stroke="rgba(0, 0, 0, 1)" stroke-miterlimit="10" pointer-events="none"/><g fill="rgba(0, 0, 0, 1)" font-family="Helvetica" pointer-events="none" clip-path="url(#mx-clip-36-340-204-30-0)" font-size="12px"><text x="37.5" y="359.5">name : string</text></g><path d="M 559.04 342.01 L 579.04 342.01 Q 589.04 342.01 598.43 338.57 L 980.61 198.44 Q 990 195 1000 195 L 1020 195" fill="none" stroke="rgba(0, 0, 0, 1)" stroke-miterlimit="10" pointer-events="none"/><path d="M 563.04 338.01 L 563.04 346.01" fill="none" stroke="rgba(0, 0, 0, 1)" stroke-miterlimit="10" pointer-events="none"/><ellipse cx="1008" cy="195" rx="3" ry="3" fill="#ffffff" stroke="rgba(0, 0, 0, 1)" pointer-events="none"/><path d="M 1020 191 L 1012 195 L 1020 199" fill="none" stroke="rgba(0, 0, 0, 1)" stroke-miterlimit="10" pointer-events="none"/><path d="M 320 325 L 290 325 L 270 325 L 240 325" fill="none" stroke="rgba(0, 0, 0, 1)" stroke-miterlimit="10" pointer-events="none"/><path d="M 244 321 L 244 329" fill="none" stroke="rgba(0, 0, 0, 1)" stroke-miterlimit="10" pointer-events="none"/><path d="M 1260 105 L 1280 105 Q 1290 105 1290.39 114.99 L 1299.61 350.01 Q 1300 360 1310 360 L 1330 360" fill="none" stroke="rgba(0, 0, 0, 1)" stroke-miterlimit="10" pointer-events="none"/><path d="M 1264 101 L 1264 109" fill="none" stroke="rgba(0, 0, 0, 1)" stroke-miterlimit="10" pointer-events="none"/><ellipse cx="1318" cy="360" rx="3" ry="3" fill="#ffffff" stroke="rgba(0, 0, 0, 1)" pointer-events="none"/><path d="M 1330 356 L 1322 360 L 1330 364" fill="none" stroke="rgba(0, 0, 0, 1)" stroke-miterlimit="10" pointer-events="none"/><path d="M 1258.08 152.01 L 1278.08 152.01 Q 1288.08 152.01 1288.14 162.01 L 1289.94 450 Q 1290 460 1300 460 L 1320 460" fill="none" stroke="rgba(0, 0, 0, 1)" stroke-miterlimit="10" pointer-events="none"/><path d="M 1262.08 148.01 L 1262.08 156.01" fill="none" stroke="rgba(0, 0, 0, 1)" stroke-miterlimit="10" pointer-events="none"/><ellipse cx="1308" cy="460" rx="3" ry="3" fill="#ffffff" stroke="rgba(0, 0, 0, 1)" pointer-events="none"/><path d="M 1320 456 L 1312 460 L 1320 464" fill="none" stroke="rgba(0, 0, 0, 1)" stroke-miterlimit="10" pointer-events="none"/></g></svg>